<?xml version="1.0" encoding="UTF-8" standalone="no"?>
<!DOCTYPE svg PUBLIC "-//W3C//DTD SVG 1.1//EN"
 "http://www.w3.org/Graphics/SVG/1.1/DTD/svg11.dtd">
<!-- Generated by graphviz version 2.46.0 (20210119.1425)
 -->
<!-- Title: dependencies Pages: 1 -->
<svg width="917pt" height="211pt"
 viewBox="0.00 0.00 917.00 211.00" xmlns="http://www.w3.org/2000/svg" xmlns:xlink="http://www.w3.org/1999/xlink">
<g id="graph0" class="graph" transform="scale(1 1) rotate(0) translate(4 207)">
<title>dependencies</title>
<polygon fill="white" stroke="transparent" points="-4,4 -4,-207 913,-207 913,4 -4,4"/>
<text text-anchor="start" x="433.51" y="-42.4" font-family="sans-serif" font-weight="bold" font-size="14.00">Legend</text>
<polygon fill="#ffffb3" stroke="transparent" points="220.5,-10 220.5,-30 240.5,-30 240.5,-10 220.5,-10"/>
<text text-anchor="start" x="244.13" y="-15.4" font-family="sans-serif" font-size="14.00"> &#160;Declarations</text>
<polygon fill="#8dd3c7" stroke="transparent" points="333.5,-10 333.5,-30 353.5,-30 353.5,-10 333.5,-10"/>
<text text-anchor="start" x="357.23" y="-15.4" font-family="sans-serif" font-size="14.00"> &#160;Module</text>
<polygon fill="#80b1d3" stroke="transparent" points="419.5,-10 419.5,-30 439.5,-30 439.5,-10 419.5,-10"/>
<text text-anchor="start" x="443.28" y="-15.4" font-family="sans-serif" font-size="14.00"> &#160;Bootstrap</text>
<polygon fill="#fdb462" stroke="transparent" points="516.5,-10 516.5,-30 536.5,-30 536.5,-10 516.5,-10"/>
<text text-anchor="start" x="540.17" y="-15.4" font-family="sans-serif" font-size="14.00"> &#160;Providers</text>
<polygon fill="#fb8072" stroke="transparent" points="612.5,-10 612.5,-30 632.5,-30 632.5,-10 612.5,-10"/>
<text text-anchor="start" x="636.23" y="-15.4" font-family="sans-serif" font-size="14.00"> &#160;Exports</text>
<g id="clust1" class="cluster">
<title>cluster_NotificationsPageModule</title>
<polygon fill="none" stroke="black" stroke-dasharray="1,5" points="8,-70 8,-195 901,-195 901,-70 8,-70"/>
</g>
<g id="clust5" class="cluster">
<title>cluster_NotificationsPageModule_imports</title>
<polygon fill="none" stroke="black" points="323,-78 323,-130 893,-130 893,-78 323,-78"/>
</g>
<g id="clust2" class="cluster">
<title>cluster_NotificationsPageModule_declarations</title>
<polygon fill="none" stroke="black" points="16,-78 16,-130 315,-130 315,-78 16,-78"/>
</g>
<!-- NotificationsPage -->
<g id="node1" class="node">
<title>NotificationsPage</title>
<polygon fill="#ffffb3" stroke="black" points="307.31,-122 190.69,-122 190.69,-86 307.31,-86 307.31,-122"/>
<text text-anchor="middle" x="249" y="-99.8" font-family="Times,serif" font-size="14.00">NotificationsPage</text>
</g>
<!-- NotificationsPageModule -->
<g id="node3" class="node">
<title>NotificationsPageModule</title>
<polygon fill="#8dd3c7" stroke="black" points="594.86,-187 591.86,-191 570.86,-191 567.86,-187 435.14,-187 435.14,-151 594.86,-151 594.86,-187"/>
<text text-anchor="middle" x="515" y="-164.8" font-family="Times,serif" font-size="14.00">NotificationsPageModule</text>
</g>
<!-- NotificationsPage&#45;&gt;NotificationsPageModule -->
<g id="edge1" class="edge">
<title>NotificationsPage&#45;&gt;NotificationsPageModule</title>
<path fill="none" stroke="black" d="M249,-122.02C249,-139.37 249,-163 249,-163 249,-163 424.83,-163 424.83,-163"/>
<polygon fill="black" stroke="black" points="424.83,-166.5 434.83,-163 424.83,-159.5 424.83,-166.5"/>
</g>
<!-- NotificationComponent -->
<g id="node2" class="node">
<title>NotificationComponent</title>
<polygon fill="#ffffb3" stroke="black" points="172.48,-122 23.52,-122 23.52,-86 172.48,-86 172.48,-122"/>
<text text-anchor="middle" x="98" y="-99.8" font-family="Times,serif" font-size="14.00">NotificationComponent</text>
</g>
<!-- NotificationComponent&#45;&gt;NotificationsPageModule -->
<g id="edge2" class="edge">
<title>NotificationComponent&#45;&gt;NotificationsPageModule</title>
<path fill="none" stroke="black" d="M98,-122.28C98,-143.32 98,-175 98,-175 98,-175 425.09,-175 425.09,-175"/>
<polygon fill="black" stroke="black" points="425.09,-178.5 435.09,-175 425.09,-171.5 425.09,-178.5"/>
</g>
<!-- CommonModule -->
<g id="node4" class="node">
<title>CommonModule</title>
<polygon fill="#8dd3c7" stroke="black" points="884.67,-122 881.67,-126 860.67,-126 857.67,-122 773.33,-122 773.33,-86 884.67,-86 884.67,-122"/>
<text text-anchor="middle" x="829" y="-99.8" font-family="Times,serif" font-size="14.00">CommonModule</text>
</g>
<!-- CommonModule&#45;&gt;NotificationsPageModule -->
<g id="edge3" class="edge">
<title>CommonModule&#45;&gt;NotificationsPageModule</title>
<path fill="none" stroke="black" d="M829,-122.28C829,-143.32 829,-175 829,-175 829,-175 605.05,-175 605.05,-175"/>
<polygon fill="black" stroke="black" points="605.05,-171.5 595.05,-175 605.05,-178.5 605.05,-171.5"/>
</g>
<!-- FormsModule -->
<g id="node5" class="node">
<title>FormsModule</title>
<polygon fill="#8dd3c7" stroke="black" points="755.83,-122 752.83,-126 731.83,-126 728.83,-122 660.17,-122 660.17,-86 755.83,-86 755.83,-122"/>
<text text-anchor="middle" x="708" y="-99.8" font-family="Times,serif" font-size="14.00">FormsModule</text>
</g>
<!-- FormsModule&#45;&gt;NotificationsPageModule -->
<g id="edge4" class="edge">
<title>FormsModule&#45;&gt;NotificationsPageModule</title>
<path fill="none" stroke="black" d="M708,-122.02C708,-139.37 708,-163 708,-163 708,-163 604.89,-163 604.89,-163"/>
<polygon fill="black" stroke="black" points="604.89,-159.5 594.89,-163 604.89,-166.5 604.89,-159.5"/>
</g>
<!-- IonicModule -->
<g id="node6" class="node">
<title>IonicModule</title>
<polygon fill="#8dd3c7" stroke="black" points="642.32,-122 639.32,-126 618.32,-126 615.32,-122 553.68,-122 553.68,-86 642.32,-86 642.32,-122"/>
<text text-anchor="middle" x="598" y="-99.8" font-family="Times,serif" font-size="14.00">IonicModule</text>
</g>
<!-- IonicModule&#45;&gt;NotificationsPageModule -->
<g id="edge5" class="edge">
<title>IonicModule&#45;&gt;NotificationsPageModule</title>
<path fill="none" stroke="black" d="M574.38,-122.11C574.38,-122.11 574.38,-140.99 574.38,-140.99"/>
<polygon fill="black" stroke="black" points="570.89,-140.99 574.38,-150.99 577.89,-140.99 570.89,-140.99"/>
</g>
<!-- NotificationsPageRoutingModule -->
<g id="node7" class="node">
<title>NotificationsPageRoutingModule</title>
<polygon fill="#8dd3c7" stroke="black" points="535.47,-122 532.47,-126 511.47,-126 508.47,-122 330.53,-122 330.53,-86 535.47,-86 535.47,-122"/>
<text text-anchor="middle" x="433" y="-99.8" font-family="Times,serif" font-size="14.00">NotificationsPageRoutingModule</text>
</g>
<!-- NotificationsPageRoutingModule&#45;&gt;NotificationsPageModule -->
<g id="edge6" class="edge">
<title>NotificationsPageRoutingModule&#45;&gt;NotificationsPageModule</title>
<path fill="none" stroke="black" d="M485.28,-122.11C485.28,-122.11 485.28,-140.99 485.28,-140.99"/>
<polygon fill="black" stroke="black" points="481.78,-140.99 485.28,-150.99 488.78,-140.99 481.78,-140.99"/>
</g>
</g>
</svg>
