<?xml version="1.0" encoding="UTF-8" standalone="no"?>
<!DOCTYPE svg PUBLIC "-//W3C//DTD SVG 1.1//EN"
 "http://www.w3.org/Graphics/SVG/1.1/DTD/svg11.dtd">
<!-- Generated by graphviz version 2.46.0 (20210119.1425)
 -->
<!-- Title: dependencies Pages: 1 -->
<svg width="697pt" height="211pt"
 viewBox="0.00 0.00 697.00 211.00" xmlns="http://www.w3.org/2000/svg" xmlns:xlink="http://www.w3.org/1999/xlink">
<g id="graph0" class="graph" transform="scale(1 1) rotate(0) translate(4 207)">
<title>dependencies</title>
<polygon fill="white" stroke="transparent" points="-4,4 -4,-207 693,-207 693,4 -4,4"/>
<text text-anchor="start" x="323.51" y="-42.4" font-family="sans-serif" font-weight="bold" font-size="14.00">Legend</text>
<polygon fill="#ffffb3" stroke="transparent" points="110.5,-10 110.5,-30 130.5,-30 130.5,-10 110.5,-10"/>
<text text-anchor="start" x="134.13" y="-15.4" font-family="sans-serif" font-size="14.00"> &#160;Declarations</text>
<polygon fill="#8dd3c7" stroke="transparent" points="223.5,-10 223.5,-30 243.5,-30 243.5,-10 223.5,-10"/>
<text text-anchor="start" x="247.23" y="-15.4" font-family="sans-serif" font-size="14.00"> &#160;Module</text>
<polygon fill="#80b1d3" stroke="transparent" points="309.5,-10 309.5,-30 329.5,-30 329.5,-10 309.5,-10"/>
<text text-anchor="start" x="333.28" y="-15.4" font-family="sans-serif" font-size="14.00"> &#160;Bootstrap</text>
<polygon fill="#fdb462" stroke="transparent" points="406.5,-10 406.5,-30 426.5,-30 426.5,-10 406.5,-10"/>
<text text-anchor="start" x="430.17" y="-15.4" font-family="sans-serif" font-size="14.00"> &#160;Providers</text>
<polygon fill="#fb8072" stroke="transparent" points="502.5,-10 502.5,-30 522.5,-30 522.5,-10 502.5,-10"/>
<text text-anchor="start" x="526.23" y="-15.4" font-family="sans-serif" font-size="14.00"> &#160;Exports</text>
<g id="clust1" class="cluster">
<title>cluster_ConnectPageModule</title>
<polygon fill="none" stroke="black" stroke-dasharray="1,5" points="8,-70 8,-195 681,-195 681,-70 8,-70"/>
</g>
<g id="clust4" class="cluster">
<title>cluster_ConnectPageModule_imports</title>
<polygon fill="none" stroke="black" points="130,-78 130,-130 673,-130 673,-78 130,-78"/>
</g>
<g id="clust2" class="cluster">
<title>cluster_ConnectPageModule_declarations</title>
<polygon fill="none" stroke="black" points="16,-78 16,-130 122,-130 122,-78 16,-78"/>
</g>
<!-- ConnectPage -->
<g id="node1" class="node">
<title>ConnectPage</title>
<polygon fill="#ffffb3" stroke="black" points="113.87,-122 24.13,-122 24.13,-86 113.87,-86 113.87,-122"/>
<text text-anchor="middle" x="69" y="-99.8" font-family="Times,serif" font-size="14.00">ConnectPage</text>
</g>
<!-- ConnectPageModule -->
<g id="node2" class="node">
<title>ConnectPageModule</title>
<polygon fill="#8dd3c7" stroke="black" points="444.92,-187 441.92,-191 420.92,-191 417.92,-187 311.08,-187 311.08,-151 444.92,-151 444.92,-187"/>
<text text-anchor="middle" x="378" y="-164.8" font-family="Times,serif" font-size="14.00">ConnectPageModule</text>
</g>
<!-- ConnectPage&#45;&gt;ConnectPageModule -->
<g id="edge1" class="edge">
<title>ConnectPage&#45;&gt;ConnectPageModule</title>
<path fill="none" stroke="black" d="M69,-122.11C69,-141.34 69,-169 69,-169 69,-169 300.95,-169 300.95,-169"/>
<polygon fill="black" stroke="black" points="300.95,-172.5 310.95,-169 300.95,-165.5 300.95,-172.5"/>
</g>
<!-- CommonModule -->
<g id="node3" class="node">
<title>CommonModule</title>
<polygon fill="#8dd3c7" stroke="black" points="664.67,-122 661.67,-126 640.67,-126 637.67,-122 553.33,-122 553.33,-86 664.67,-86 664.67,-122"/>
<text text-anchor="middle" x="609" y="-99.8" font-family="Times,serif" font-size="14.00">CommonModule</text>
</g>
<!-- CommonModule&#45;&gt;ConnectPageModule -->
<g id="edge2" class="edge">
<title>CommonModule&#45;&gt;ConnectPageModule</title>
<path fill="none" stroke="black" d="M609,-122.11C609,-141.34 609,-169 609,-169 609,-169 454.81,-169 454.81,-169"/>
<polygon fill="black" stroke="black" points="454.81,-165.5 444.81,-169 454.81,-172.5 454.81,-165.5"/>
</g>
<!-- FormsModule -->
<g id="node4" class="node">
<title>FormsModule</title>
<polygon fill="#8dd3c7" stroke="black" points="535.83,-122 532.83,-126 511.83,-126 508.83,-122 440.17,-122 440.17,-86 535.83,-86 535.83,-122"/>
<text text-anchor="middle" x="488" y="-99.8" font-family="Times,serif" font-size="14.00">FormsModule</text>
</g>
<!-- FormsModule&#45;&gt;ConnectPageModule -->
<g id="edge3" class="edge">
<title>FormsModule&#45;&gt;ConnectPageModule</title>
<path fill="none" stroke="black" d="M440.11,-104C434.79,-104 431.25,-104 431.25,-104 431.25,-104 431.25,-140.89 431.25,-140.89"/>
<polygon fill="black" stroke="black" points="427.75,-140.89 431.25,-150.89 434.75,-140.89 427.75,-140.89"/>
</g>
<!-- IonicModule -->
<g id="node5" class="node">
<title>IonicModule</title>
<polygon fill="#8dd3c7" stroke="black" points="422.32,-122 419.32,-126 398.32,-126 395.32,-122 333.68,-122 333.68,-86 422.32,-86 422.32,-122"/>
<text text-anchor="middle" x="378" y="-99.8" font-family="Times,serif" font-size="14.00">IonicModule</text>
</g>
<!-- IonicModule&#45;&gt;ConnectPageModule -->
<g id="edge4" class="edge">
<title>IonicModule&#45;&gt;ConnectPageModule</title>
<path fill="none" stroke="black" d="M378,-122.11C378,-122.11 378,-140.99 378,-140.99"/>
<polygon fill="black" stroke="black" points="374.5,-140.99 378,-150.99 381.5,-140.99 374.5,-140.99"/>
</g>
<!-- ConnectPageRoutingModule -->
<g id="node6" class="node">
<title>ConnectPageRoutingModule</title>
<polygon fill="#8dd3c7" stroke="black" points="316.04,-122 313.04,-126 292.04,-126 289.04,-122 137.96,-122 137.96,-86 316.04,-86 316.04,-122"/>
<text text-anchor="middle" x="227" y="-99.8" font-family="Times,serif" font-size="14.00">ConnectPageRoutingModule</text>
</g>
<!-- ConnectPageRoutingModule&#45;&gt;ConnectPageModule -->
<g id="edge5" class="edge">
<title>ConnectPageRoutingModule&#45;&gt;ConnectPageModule</title>
<path fill="none" stroke="black" d="M316.35,-104C321.75,-104 325.06,-104 325.06,-104 325.06,-104 325.06,-140.89 325.06,-140.89"/>
<polygon fill="black" stroke="black" points="321.56,-140.89 325.06,-150.89 328.56,-140.89 321.56,-140.89"/>
</g>
</g>
</svg>
