<?xml version="1.0" encoding="UTF-8" standalone="no"?>
<!DOCTYPE svg PUBLIC "-//W3C//DTD SVG 1.1//EN"
 "http://www.w3.org/Graphics/SVG/1.1/DTD/svg11.dtd">
<!-- Generated by graphviz version 2.46.0 (20210119.1425)
 -->
<!-- Title: dependencies Pages: 1 -->
<svg width="1037pt" height="211pt"
 viewBox="0.00 0.00 1037.00 211.00" xmlns="http://www.w3.org/2000/svg" xmlns:xlink="http://www.w3.org/1999/xlink">
<g id="graph0" class="graph" transform="scale(1 1) rotate(0) translate(4 207)">
<title>dependencies</title>
<polygon fill="white" stroke="transparent" points="-4,4 -4,-207 1033,-207 1033,4 -4,4"/>
<text text-anchor="start" x="493.51" y="-42.4" font-family="sans-serif" font-weight="bold" font-size="14.00">Legend</text>
<polygon fill="#ffffb3" stroke="transparent" points="280.5,-10 280.5,-30 300.5,-30 300.5,-10 280.5,-10"/>
<text text-anchor="start" x="304.13" y="-15.4" font-family="sans-serif" font-size="14.00"> &#160;Declarations</text>
<polygon fill="#8dd3c7" stroke="transparent" points="393.5,-10 393.5,-30 413.5,-30 413.5,-10 393.5,-10"/>
<text text-anchor="start" x="417.23" y="-15.4" font-family="sans-serif" font-size="14.00"> &#160;Module</text>
<polygon fill="#80b1d3" stroke="transparent" points="479.5,-10 479.5,-30 499.5,-30 499.5,-10 479.5,-10"/>
<text text-anchor="start" x="503.28" y="-15.4" font-family="sans-serif" font-size="14.00"> &#160;Bootstrap</text>
<polygon fill="#fdb462" stroke="transparent" points="576.5,-10 576.5,-30 596.5,-30 596.5,-10 576.5,-10"/>
<text text-anchor="start" x="600.17" y="-15.4" font-family="sans-serif" font-size="14.00"> &#160;Providers</text>
<polygon fill="#fb8072" stroke="transparent" points="672.5,-10 672.5,-30 692.5,-30 692.5,-10 672.5,-10"/>
<text text-anchor="start" x="696.23" y="-15.4" font-family="sans-serif" font-size="14.00"> &#160;Exports</text>
<g id="clust1" class="cluster">
<title>cluster_LearnModalPageModule</title>
<polygon fill="none" stroke="black" stroke-dasharray="1,5" points="8,-70 8,-195 1021,-195 1021,-70 8,-70"/>
</g>
<g id="clust2" class="cluster">
<title>cluster_LearnModalPageModule_declarations</title>
<polygon fill="none" stroke="black" points="725,-78 725,-130 1013,-130 1013,-78 725,-78"/>
</g>
<g id="clust5" class="cluster">
<title>cluster_LearnModalPageModule_imports</title>
<polygon fill="none" stroke="black" points="16,-78 16,-130 717,-130 717,-78 16,-78"/>
</g>
<!-- LearnModalPage -->
<g id="node1" class="node">
<title>LearnModalPage</title>
<polygon fill="#ffffb3" stroke="black" points="1005.4,-122 892.6,-122 892.6,-86 1005.4,-86 1005.4,-122"/>
<text text-anchor="middle" x="949" y="-99.8" font-family="Times,serif" font-size="14.00">LearnModalPage</text>
</g>
<!-- LearnModalPageModule -->
<g id="node3" class="node">
<title>LearnModalPageModule</title>
<polygon fill="#8dd3c7" stroke="black" points="609.95,-187 606.95,-191 585.95,-191 582.95,-187 454.05,-187 454.05,-151 609.95,-151 609.95,-187"/>
<text text-anchor="middle" x="532" y="-164.8" font-family="Times,serif" font-size="14.00">LearnModalPageModule</text>
</g>
<!-- LearnModalPage&#45;&gt;LearnModalPageModule -->
<g id="edge1" class="edge">
<title>LearnModalPage&#45;&gt;LearnModalPageModule</title>
<path fill="none" stroke="black" d="M949,-122.28C949,-143.32 949,-175 949,-175 949,-175 620.43,-175 620.43,-175"/>
<polygon fill="black" stroke="black" points="620.43,-171.5 610.43,-175 620.43,-178.5 620.43,-171.5"/>
</g>
<!-- LearnQuizComponent -->
<g id="node2" class="node">
<title>LearnQuizComponent</title>
<polygon fill="#ffffb3" stroke="black" points="874.69,-122 733.31,-122 733.31,-86 874.69,-86 874.69,-122"/>
<text text-anchor="middle" x="804" y="-99.8" font-family="Times,serif" font-size="14.00">LearnQuizComponent</text>
</g>
<!-- LearnQuizComponent&#45;&gt;LearnModalPageModule -->
<g id="edge2" class="edge">
<title>LearnQuizComponent&#45;&gt;LearnModalPageModule</title>
<path fill="none" stroke="black" d="M804,-122.02C804,-139.37 804,-163 804,-163 804,-163 620.31,-163 620.31,-163"/>
<polygon fill="black" stroke="black" points="620.31,-159.5 610.31,-163 620.31,-166.5 620.31,-159.5"/>
</g>
<!-- CommonModule -->
<g id="node4" class="node">
<title>CommonModule</title>
<polygon fill="#8dd3c7" stroke="black" points="708.67,-122 705.67,-126 684.67,-126 681.67,-122 597.33,-122 597.33,-86 708.67,-86 708.67,-122"/>
<text text-anchor="middle" x="653" y="-99.8" font-family="Times,serif" font-size="14.00">CommonModule</text>
</g>
<!-- CommonModule&#45;&gt;LearnModalPageModule -->
<g id="edge3" class="edge">
<title>CommonModule&#45;&gt;LearnModalPageModule</title>
<path fill="none" stroke="black" d="M603.57,-122.11C603.57,-122.11 603.57,-140.99 603.57,-140.99"/>
<polygon fill="black" stroke="black" points="600.07,-140.99 603.57,-150.99 607.07,-140.99 600.07,-140.99"/>
</g>
<!-- FormsModule -->
<g id="node5" class="node">
<title>FormsModule</title>
<polygon fill="#8dd3c7" stroke="black" points="579.83,-122 576.83,-126 555.83,-126 552.83,-122 484.17,-122 484.17,-86 579.83,-86 579.83,-122"/>
<text text-anchor="middle" x="532" y="-99.8" font-family="Times,serif" font-size="14.00">FormsModule</text>
</g>
<!-- FormsModule&#45;&gt;LearnModalPageModule -->
<g id="edge4" class="edge">
<title>FormsModule&#45;&gt;LearnModalPageModule</title>
<path fill="none" stroke="black" d="M532,-122.11C532,-122.11 532,-140.99 532,-140.99"/>
<polygon fill="black" stroke="black" points="528.5,-140.99 532,-150.99 535.5,-140.99 528.5,-140.99"/>
</g>
<!-- IonicModule -->
<g id="node6" class="node">
<title>IonicModule</title>
<polygon fill="#8dd3c7" stroke="black" points="466.32,-122 463.32,-126 442.32,-126 439.32,-122 377.68,-122 377.68,-86 466.32,-86 466.32,-122"/>
<text text-anchor="middle" x="422" y="-99.8" font-family="Times,serif" font-size="14.00">IonicModule</text>
</g>
<!-- IonicModule&#45;&gt;LearnModalPageModule -->
<g id="edge5" class="edge">
<title>IonicModule&#45;&gt;LearnModalPageModule</title>
<path fill="none" stroke="black" d="M460.09,-122.11C460.09,-122.11 460.09,-140.99 460.09,-140.99"/>
<polygon fill="black" stroke="black" points="456.59,-140.99 460.09,-150.99 463.59,-140.99 456.59,-140.99"/>
</g>
<!-- LearnModalPageRoutingModule -->
<g id="node7" class="node">
<title>LearnModalPageRoutingModule</title>
<polygon fill="#8dd3c7" stroke="black" points="359.57,-122 356.57,-126 335.57,-126 332.57,-122 158.43,-122 158.43,-86 359.57,-86 359.57,-122"/>
<text text-anchor="middle" x="259" y="-99.8" font-family="Times,serif" font-size="14.00">LearnModalPageRoutingModule</text>
</g>
<!-- LearnModalPageRoutingModule&#45;&gt;LearnModalPageModule -->
<g id="edge6" class="edge">
<title>LearnModalPageRoutingModule&#45;&gt;LearnModalPageModule</title>
<path fill="none" stroke="black" d="M259,-122.02C259,-139.37 259,-163 259,-163 259,-163 443.77,-163 443.77,-163"/>
<polygon fill="black" stroke="black" points="443.77,-166.5 453.77,-163 443.77,-159.5 443.77,-166.5"/>
</g>
<!-- DragDropModule -->
<g id="node8" class="node">
<title>DragDropModule</title>
<polygon fill="#8dd3c7" stroke="black" points="140.3,-122 137.3,-126 116.3,-126 113.3,-122 23.7,-122 23.7,-86 140.3,-86 140.3,-122"/>
<text text-anchor="middle" x="82" y="-99.8" font-family="Times,serif" font-size="14.00">DragDropModule</text>
</g>
<!-- DragDropModule&#45;&gt;LearnModalPageModule -->
<g id="edge7" class="edge">
<title>DragDropModule&#45;&gt;LearnModalPageModule</title>
<path fill="none" stroke="black" d="M82,-122.28C82,-143.32 82,-175 82,-175 82,-175 443.87,-175 443.87,-175"/>
<polygon fill="black" stroke="black" points="443.87,-178.5 453.87,-175 443.87,-171.5 443.87,-178.5"/>
</g>
</g>
</svg>
