<?xml version="1.0" encoding="UTF-8" standalone="no"?>
<!DOCTYPE svg PUBLIC "-//W3C//DTD SVG 1.1//EN"
 "http://www.w3.org/Graphics/SVG/1.1/DTD/svg11.dtd">
<!-- Generated by graphviz version 2.46.0 (20210119.1425)
 -->
<!-- Title: dependencies Pages: 1 -->
<svg width="801pt" height="211pt"
 viewBox="0.00 0.00 801.00 211.00" xmlns="http://www.w3.org/2000/svg" xmlns:xlink="http://www.w3.org/1999/xlink">
<g id="graph0" class="graph" transform="scale(1 1) rotate(0) translate(4 207)">
<title>dependencies</title>
<polygon fill="white" stroke="transparent" points="-4,4 -4,-207 797,-207 797,4 -4,4"/>
<text text-anchor="start" x="375.51" y="-42.4" font-family="sans-serif" font-weight="bold" font-size="14.00">Legend</text>
<polygon fill="#ffffb3" stroke="transparent" points="162.5,-10 162.5,-30 182.5,-30 182.5,-10 162.5,-10"/>
<text text-anchor="start" x="186.13" y="-15.4" font-family="sans-serif" font-size="14.00"> &#160;Declarations</text>
<polygon fill="#8dd3c7" stroke="transparent" points="275.5,-10 275.5,-30 295.5,-30 295.5,-10 275.5,-10"/>
<text text-anchor="start" x="299.23" y="-15.4" font-family="sans-serif" font-size="14.00"> &#160;Module</text>
<polygon fill="#80b1d3" stroke="transparent" points="361.5,-10 361.5,-30 381.5,-30 381.5,-10 361.5,-10"/>
<text text-anchor="start" x="385.28" y="-15.4" font-family="sans-serif" font-size="14.00"> &#160;Bootstrap</text>
<polygon fill="#fdb462" stroke="transparent" points="458.5,-10 458.5,-30 478.5,-30 478.5,-10 458.5,-10"/>
<text text-anchor="start" x="482.17" y="-15.4" font-family="sans-serif" font-size="14.00"> &#160;Providers</text>
<polygon fill="#fb8072" stroke="transparent" points="554.5,-10 554.5,-30 574.5,-30 574.5,-10 554.5,-10"/>
<text text-anchor="start" x="578.23" y="-15.4" font-family="sans-serif" font-size="14.00"> &#160;Exports</text>
<g id="clust1" class="cluster">
<title>cluster_ZonesPageModule</title>
<polygon fill="none" stroke="black" stroke-dasharray="1,5" points="8,-70 8,-195 785,-195 785,-70 8,-70"/>
</g>
<g id="clust5" class="cluster">
<title>cluster_ZonesPageModule_imports</title>
<polygon fill="none" stroke="black" points="246,-78 246,-130 777,-130 777,-78 246,-78"/>
</g>
<g id="clust2" class="cluster">
<title>cluster_ZonesPageModule_declarations</title>
<polygon fill="none" stroke="black" points="16,-78 16,-130 238,-130 238,-78 16,-78"/>
</g>
<!-- ZonesPage -->
<g id="node1" class="node">
<title>ZonesPage</title>
<polygon fill="#ffffb3" stroke="black" points="229.92,-122 152.08,-122 152.08,-86 229.92,-86 229.92,-122"/>
<text text-anchor="middle" x="191" y="-99.8" font-family="Times,serif" font-size="14.00">ZonesPage</text>
</g>
<!-- ZonesPageModule -->
<g id="node3" class="node">
<title>ZonesPageModule</title>
<polygon fill="#8dd3c7" stroke="black" points="469.47,-187 466.47,-191 445.47,-191 442.47,-187 348.53,-187 348.53,-151 469.47,-151 469.47,-187"/>
<text text-anchor="middle" x="409" y="-164.8" font-family="Times,serif" font-size="14.00">ZonesPageModule</text>
</g>
<!-- ZonesPage&#45;&gt;ZonesPageModule -->
<g id="edge1" class="edge">
<title>ZonesPage&#45;&gt;ZonesPageModule</title>
<path fill="none" stroke="black" d="M191,-122.02C191,-139.37 191,-163 191,-163 191,-163 338.27,-163 338.27,-163"/>
<polygon fill="black" stroke="black" points="338.27,-166.5 348.27,-163 338.27,-159.5 338.27,-166.5"/>
</g>
<!-- ZoneComponent -->
<g id="node2" class="node">
<title>ZoneComponent</title>
<polygon fill="#ffffb3" stroke="black" points="134.1,-122 23.9,-122 23.9,-86 134.1,-86 134.1,-122"/>
<text text-anchor="middle" x="79" y="-99.8" font-family="Times,serif" font-size="14.00">ZoneComponent</text>
</g>
<!-- ZoneComponent&#45;&gt;ZonesPageModule -->
<g id="edge2" class="edge">
<title>ZoneComponent&#45;&gt;ZonesPageModule</title>
<path fill="none" stroke="black" d="M79,-122.28C79,-143.32 79,-175 79,-175 79,-175 338.47,-175 338.47,-175"/>
<polygon fill="black" stroke="black" points="338.47,-178.5 348.47,-175 338.47,-171.5 338.47,-178.5"/>
</g>
<!-- CommonModule -->
<g id="node4" class="node">
<title>CommonModule</title>
<polygon fill="#8dd3c7" stroke="black" points="768.67,-122 765.67,-126 744.67,-126 741.67,-122 657.33,-122 657.33,-86 768.67,-86 768.67,-122"/>
<text text-anchor="middle" x="713" y="-99.8" font-family="Times,serif" font-size="14.00">CommonModule</text>
</g>
<!-- CommonModule&#45;&gt;ZonesPageModule -->
<g id="edge3" class="edge">
<title>CommonModule&#45;&gt;ZonesPageModule</title>
<path fill="none" stroke="black" d="M713,-122.28C713,-143.32 713,-175 713,-175 713,-175 479.79,-175 479.79,-175"/>
<polygon fill="black" stroke="black" points="479.79,-171.5 469.79,-175 479.79,-178.5 479.79,-171.5"/>
</g>
<!-- FormsModule -->
<g id="node5" class="node">
<title>FormsModule</title>
<polygon fill="#8dd3c7" stroke="black" points="639.83,-122 636.83,-126 615.83,-126 612.83,-122 544.17,-122 544.17,-86 639.83,-86 639.83,-122"/>
<text text-anchor="middle" x="592" y="-99.8" font-family="Times,serif" font-size="14.00">FormsModule</text>
</g>
<!-- FormsModule&#45;&gt;ZonesPageModule -->
<g id="edge4" class="edge">
<title>FormsModule&#45;&gt;ZonesPageModule</title>
<path fill="none" stroke="black" d="M592,-122.02C592,-139.37 592,-163 592,-163 592,-163 479.68,-163 479.68,-163"/>
<polygon fill="black" stroke="black" points="479.68,-159.5 469.68,-163 479.68,-166.5 479.68,-159.5"/>
</g>
<!-- IonicModule -->
<g id="node6" class="node">
<title>IonicModule</title>
<polygon fill="#8dd3c7" stroke="black" points="526.32,-122 523.32,-126 502.32,-126 499.32,-122 437.68,-122 437.68,-86 526.32,-86 526.32,-122"/>
<text text-anchor="middle" x="482" y="-99.8" font-family="Times,serif" font-size="14.00">IonicModule</text>
</g>
<!-- IonicModule&#45;&gt;ZonesPageModule -->
<g id="edge5" class="edge">
<title>IonicModule&#45;&gt;ZonesPageModule</title>
<path fill="none" stroke="black" d="M453.66,-122.11C453.66,-122.11 453.66,-140.99 453.66,-140.99"/>
<polygon fill="black" stroke="black" points="450.16,-140.99 453.66,-150.99 457.16,-140.99 450.16,-140.99"/>
</g>
<!-- ZonesPageRoutingModule -->
<g id="node7" class="node">
<title>ZonesPageRoutingModule</title>
<polygon fill="#8dd3c7" stroke="black" points="420.09,-122 417.09,-126 396.09,-126 393.09,-122 253.91,-122 253.91,-86 420.09,-86 420.09,-122"/>
<text text-anchor="middle" x="337" y="-99.8" font-family="Times,serif" font-size="14.00">ZonesPageRoutingModule</text>
</g>
<!-- ZonesPageRoutingModule&#45;&gt;ZonesPageModule -->
<g id="edge6" class="edge">
<title>ZonesPageRoutingModule&#45;&gt;ZonesPageModule</title>
<path fill="none" stroke="black" d="M384.28,-122.11C384.28,-122.11 384.28,-140.99 384.28,-140.99"/>
<polygon fill="black" stroke="black" points="380.78,-140.99 384.28,-150.99 387.78,-140.99 380.78,-140.99"/>
</g>
</g>
</svg>
