<?xml version="1.0" encoding="UTF-8" standalone="no"?>
<!DOCTYPE svg PUBLIC "-//W3C//DTD SVG 1.1//EN"
 "http://www.w3.org/Graphics/SVG/1.1/DTD/svg11.dtd">
<!-- Generated by graphviz version 2.46.0 (20210119.1425)
 -->
<!-- Title: dependencies Pages: 1 -->
<svg width="1729pt" height="284pt"
 viewBox="0.00 0.00 1729.00 284.00" xmlns="http://www.w3.org/2000/svg" xmlns:xlink="http://www.w3.org/1999/xlink">
<g id="graph0" class="graph" transform="scale(1 1) rotate(0) translate(4 280)">
<title>dependencies</title>
<polygon fill="white" stroke="transparent" points="-4,4 -4,-280 1725,-280 1725,4 -4,4"/>
<text text-anchor="start" x="839.51" y="-42.4" font-family="sans-serif" font-weight="bold" font-size="14.00">Legend</text>
<polygon fill="#ffffb3" stroke="transparent" points="626.5,-10 626.5,-30 646.5,-30 646.5,-10 626.5,-10"/>
<text text-anchor="start" x="650.13" y="-15.4" font-family="sans-serif" font-size="14.00"> &#160;Declarations</text>
<polygon fill="#8dd3c7" stroke="transparent" points="739.5,-10 739.5,-30 759.5,-30 759.5,-10 739.5,-10"/>
<text text-anchor="start" x="763.23" y="-15.4" font-family="sans-serif" font-size="14.00"> &#160;Module</text>
<polygon fill="#80b1d3" stroke="transparent" points="825.5,-10 825.5,-30 845.5,-30 845.5,-10 825.5,-10"/>
<text text-anchor="start" x="849.28" y="-15.4" font-family="sans-serif" font-size="14.00"> &#160;Bootstrap</text>
<polygon fill="#fdb462" stroke="transparent" points="922.5,-10 922.5,-30 942.5,-30 942.5,-10 922.5,-10"/>
<text text-anchor="start" x="946.17" y="-15.4" font-family="sans-serif" font-size="14.00"> &#160;Providers</text>
<polygon fill="#fb8072" stroke="transparent" points="1018.5,-10 1018.5,-30 1038.5,-30 1038.5,-10 1018.5,-10"/>
<text text-anchor="start" x="1042.23" y="-15.4" font-family="sans-serif" font-size="14.00"> &#160;Exports</text>
<g id="clust1" class="cluster">
<title>cluster_AppModule</title>
<polygon fill="none" stroke="black" stroke-dasharray="1,5" points="8,-70 8,-268 1713,-268 1713,-70 8,-70"/>
</g>
<g id="clust6" class="cluster">
<title>cluster_AppModule_bootstrap</title>
<polygon fill="none" stroke="black" points="692,-208 692,-260 816,-260 816,-208 692,-208"/>
</g>
<g id="clust7" class="cluster">
<title>cluster_AppModule_providers</title>
<polygon fill="none" stroke="black" points="1175,-78 1175,-130 1705,-130 1705,-78 1175,-78"/>
</g>
<g id="clust2" class="cluster">
<title>cluster_AppModule_declarations</title>
<polygon fill="none" stroke="black" points="1045,-78 1045,-130 1167,-130 1167,-78 1045,-78"/>
</g>
<g id="clust4" class="cluster">
<title>cluster_AppModule_imports</title>
<polygon fill="none" stroke="black" points="16,-78 16,-130 1037,-130 1037,-78 16,-78"/>
</g>
<!-- AppComponent -->
<g id="node1" class="node">
<title>AppComponent</title>
<polygon fill="#ffffb3" stroke="black" points="1158.94,-122 1053.06,-122 1053.06,-86 1158.94,-86 1158.94,-122"/>
<text text-anchor="middle" x="1106" y="-99.8" font-family="Times,serif" font-size="14.00">AppComponent</text>
</g>
<!-- AppModule -->
<g id="node2" class="node">
<title>AppModule</title>
<polygon fill="#8dd3c7" stroke="black" points="795.66,-187 792.66,-191 771.66,-191 768.66,-187 712.34,-187 712.34,-151 795.66,-151 795.66,-187"/>
<text text-anchor="middle" x="754" y="-164.8" font-family="Times,serif" font-size="14.00">AppModule</text>
</g>
<!-- AppComponent&#45;&gt;AppModule -->
<g id="edge1" class="edge">
<title>AppComponent&#45;&gt;AppModule</title>
<path fill="none" stroke="black" d="M1106,-122.11C1106,-141.34 1106,-169 1106,-169 1106,-169 805.76,-169 805.76,-169"/>
<polygon fill="black" stroke="black" points="805.76,-165.5 795.76,-169 805.76,-172.5 805.76,-165.5"/>
</g>
<!-- AppComponent  -->
<g id="node9" class="node">
<title>AppComponent </title>
<polygon fill="#80b1d3" stroke="black" points="808.44,-252 699.56,-252 699.56,-216 808.44,-216 808.44,-252"/>
<text text-anchor="middle" x="754" y="-229.8" font-family="Times,serif" font-size="14.00">AppComponent </text>
</g>
<!-- AppModule&#45;&gt;AppComponent  -->
<g id="edge8" class="edge">
<title>AppModule&#45;&gt;AppComponent </title>
<path fill="none" stroke="black" stroke-dasharray="1,5" d="M754,-187.11C754,-187.11 754,-205.99 754,-205.99"/>
<polygon fill="black" stroke="black" points="750.5,-205.99 754,-215.99 757.5,-205.99 750.5,-205.99"/>
</g>
<!-- BrowserModule -->
<g id="node3" class="node">
<title>BrowserModule</title>
<polygon fill="#8dd3c7" stroke="black" points="1029.47,-122 1026.47,-126 1005.47,-126 1002.47,-122 922.53,-122 922.53,-86 1029.47,-86 1029.47,-122"/>
<text text-anchor="middle" x="976" y="-99.8" font-family="Times,serif" font-size="14.00">BrowserModule</text>
</g>
<!-- BrowserModule&#45;&gt;AppModule -->
<g id="edge2" class="edge">
<title>BrowserModule&#45;&gt;AppModule</title>
<path fill="none" stroke="black" d="M976,-122.03C976,-138.4 976,-160 976,-160 976,-160 805.76,-160 805.76,-160"/>
<polygon fill="black" stroke="black" points="805.76,-156.5 795.76,-160 805.76,-163.5 805.76,-156.5"/>
</g>
<!-- IonicModule.forRoot() -->
<g id="node4" class="node">
<title>IonicModule.forRoot()</title>
<polygon fill="#8dd3c7" stroke="black" points="904.19,-122 901.19,-126 880.19,-126 877.19,-122 759.81,-122 759.81,-86 904.19,-86 904.19,-122"/>
<text text-anchor="middle" x="832" y="-99.8" font-family="Times,serif" font-size="14.00">IonicModule.forRoot()</text>
</g>
<!-- IonicModule.forRoot()&#45;&gt;AppModule -->
<g id="edge3" class="edge">
<title>IonicModule.forRoot()&#45;&gt;AppModule</title>
<path fill="none" stroke="black" d="M777.74,-122.11C777.74,-122.11 777.74,-140.99 777.74,-140.99"/>
<polygon fill="black" stroke="black" points="774.24,-140.99 777.74,-150.99 781.24,-140.99 774.24,-140.99"/>
</g>
<!-- AppRoutingModule -->
<g id="node5" class="node">
<title>AppRoutingModule</title>
<polygon fill="#8dd3c7" stroke="black" points="741.27,-122 738.27,-126 717.27,-126 714.27,-122 612.73,-122 612.73,-86 741.27,-86 741.27,-122"/>
<text text-anchor="middle" x="677" y="-99.8" font-family="Times,serif" font-size="14.00">AppRoutingModule</text>
</g>
<!-- AppRoutingModule&#45;&gt;AppModule -->
<g id="edge4" class="edge">
<title>AppRoutingModule&#45;&gt;AppModule</title>
<path fill="none" stroke="black" d="M726.78,-122.11C726.78,-122.11 726.78,-140.99 726.78,-140.99"/>
<polygon fill="black" stroke="black" points="723.28,-140.99 726.78,-150.99 730.28,-140.99 723.28,-140.99"/>
</g>
<!-- AngularFireModule.initializeApp(args) -->
<g id="node6" class="node">
<title>AngularFireModule.initializeApp(args)</title>
<polygon fill="#8dd3c7" stroke="black" points="594.71,-122 591.71,-126 570.71,-126 567.71,-122 357.29,-122 357.29,-86 594.71,-86 594.71,-122"/>
<text text-anchor="middle" x="476" y="-99.8" font-family="Times,serif" font-size="14.00">AngularFireModule.initializeApp(args)</text>
</g>
<!-- AngularFireModule.initializeApp(args)&#45;&gt;AppModule -->
<g id="edge5" class="edge">
<title>AngularFireModule.initializeApp(args)&#45;&gt;AppModule</title>
<path fill="none" stroke="black" d="M476,-122.03C476,-138.4 476,-160 476,-160 476,-160 702.08,-160 702.08,-160"/>
<polygon fill="black" stroke="black" points="702.08,-163.5 712.08,-160 702.08,-156.5 702.08,-163.5"/>
</g>
<!-- AngularFireDatabaseModule -->
<g id="node7" class="node">
<title>AngularFireDatabaseModule</title>
<polygon fill="#8dd3c7" stroke="black" points="339.77,-122 336.77,-126 315.77,-126 312.77,-122 160.23,-122 160.23,-86 339.77,-86 339.77,-122"/>
<text text-anchor="middle" x="250" y="-99.8" font-family="Times,serif" font-size="14.00">AngularFireDatabaseModule</text>
</g>
<!-- AngularFireDatabaseModule&#45;&gt;AppModule -->
<g id="edge6" class="edge">
<title>AngularFireDatabaseModule&#45;&gt;AppModule</title>
<path fill="none" stroke="black" d="M250,-122.11C250,-141.34 250,-169 250,-169 250,-169 702.33,-169 702.33,-169"/>
<polygon fill="black" stroke="black" points="702.33,-172.5 712.33,-169 702.33,-165.5 702.33,-172.5"/>
</g>
<!-- HttpClientModule -->
<g id="node8" class="node">
<title>HttpClientModule</title>
<polygon fill="#8dd3c7" stroke="black" points="142.16,-122 139.16,-126 118.16,-126 115.16,-122 23.84,-122 23.84,-86 142.16,-86 142.16,-122"/>
<text text-anchor="middle" x="83" y="-99.8" font-family="Times,serif" font-size="14.00">HttpClientModule</text>
</g>
<!-- HttpClientModule&#45;&gt;AppModule -->
<g id="edge7" class="edge">
<title>HttpClientModule&#45;&gt;AppModule</title>
<path fill="none" stroke="black" d="M83,-122.29C83,-144.21 83,-178 83,-178 83,-178 702.28,-178 702.28,-178"/>
<polygon fill="black" stroke="black" points="702.28,-181.5 712.28,-178 702.28,-174.5 702.28,-181.5"/>
</g>
<!-- { provide: RouteReuseStrategy, useClass: IonicRouteStrategy } -->
<g id="node10" class="node">
<title>{ provide: RouteReuseStrategy, useClass: IonicRouteStrategy }</title>
<ellipse fill="#fdb462" stroke="black" cx="1440" cy="-104" rx="257.27" ry="18"/>
<text text-anchor="middle" x="1440" y="-99.8" font-family="Times,serif" font-size="14.00">{ provide: RouteReuseStrategy, useClass: IonicRouteStrategy }</text>
</g>
<!-- { provide: RouteReuseStrategy, useClass: IonicRouteStrategy }&#45;&gt;AppModule -->
<g id="edge9" class="edge">
<title>{ provide: RouteReuseStrategy, useClass: IonicRouteStrategy }&#45;&gt;AppModule</title>
<path fill="none" stroke="black" d="M1440,-122.29C1440,-144.21 1440,-178 1440,-178 1440,-178 805.88,-178 805.88,-178"/>
<polygon fill="black" stroke="black" points="805.88,-174.5 795.88,-178 805.88,-181.5 805.88,-174.5"/>
</g>
</g>
</svg>
