<?xml version="1.0" encoding="UTF-8" standalone="no"?>
<!DOCTYPE svg PUBLIC "-//W3C//DTD SVG 1.1//EN"
 "http://www.w3.org/Graphics/SVG/1.1/DTD/svg11.dtd">
<!-- Generated by graphviz version 2.46.0 (20210119.1425)
 -->
<!-- Title: dependencies Pages: 1 -->
<svg width="669pt" height="211pt"
 viewBox="0.00 0.00 669.00 211.00" xmlns="http://www.w3.org/2000/svg" xmlns:xlink="http://www.w3.org/1999/xlink">
<g id="graph0" class="graph" transform="scale(1 1) rotate(0) translate(4 207)">
<title>dependencies</title>
<polygon fill="white" stroke="transparent" points="-4,4 -4,-207 665,-207 665,4 -4,4"/>
<text text-anchor="start" x="309.51" y="-42.4" font-family="sans-serif" font-weight="bold" font-size="14.00">Legend</text>
<polygon fill="#ffffb3" stroke="transparent" points="96.5,-10 96.5,-30 116.5,-30 116.5,-10 96.5,-10"/>
<text text-anchor="start" x="120.13" y="-15.4" font-family="sans-serif" font-size="14.00"> &#160;Declarations</text>
<polygon fill="#8dd3c7" stroke="transparent" points="209.5,-10 209.5,-30 229.5,-30 229.5,-10 209.5,-10"/>
<text text-anchor="start" x="233.23" y="-15.4" font-family="sans-serif" font-size="14.00"> &#160;Module</text>
<polygon fill="#80b1d3" stroke="transparent" points="295.5,-10 295.5,-30 315.5,-30 315.5,-10 295.5,-10"/>
<text text-anchor="start" x="319.28" y="-15.4" font-family="sans-serif" font-size="14.00"> &#160;Bootstrap</text>
<polygon fill="#fdb462" stroke="transparent" points="392.5,-10 392.5,-30 412.5,-30 412.5,-10 392.5,-10"/>
<text text-anchor="start" x="416.17" y="-15.4" font-family="sans-serif" font-size="14.00"> &#160;Providers</text>
<polygon fill="#fb8072" stroke="transparent" points="488.5,-10 488.5,-30 508.5,-30 508.5,-10 488.5,-10"/>
<text text-anchor="start" x="512.23" y="-15.4" font-family="sans-serif" font-size="14.00"> &#160;Exports</text>
<g id="clust1" class="cluster">
<title>cluster_LearnPageModule</title>
<polygon fill="none" stroke="black" stroke-dasharray="1,5" points="8,-70 8,-195 653,-195 653,-70 8,-70"/>
</g>
<g id="clust2" class="cluster">
<title>cluster_LearnPageModule_declarations</title>
<polygon fill="none" stroke="black" points="553,-78 553,-130 645,-130 645,-78 553,-78"/>
</g>
<g id="clust4" class="cluster">
<title>cluster_LearnPageModule_imports</title>
<polygon fill="none" stroke="black" points="16,-78 16,-130 545,-130 545,-78 16,-78"/>
</g>
<!-- LearnPage -->
<g id="node1" class="node">
<title>LearnPage</title>
<polygon fill="#ffffb3" stroke="black" points="636.85,-122 561.15,-122 561.15,-86 636.85,-86 636.85,-122"/>
<text text-anchor="middle" x="599" y="-99.8" font-family="Times,serif" font-size="14.00">LearnPage</text>
</g>
<!-- LearnPageModule -->
<g id="node2" class="node">
<title>LearnPageModule</title>
<polygon fill="#8dd3c7" stroke="black" points="419.9,-187 416.9,-191 395.9,-191 392.9,-187 300.1,-187 300.1,-151 419.9,-151 419.9,-187"/>
<text text-anchor="middle" x="360" y="-164.8" font-family="Times,serif" font-size="14.00">LearnPageModule</text>
</g>
<!-- LearnPage&#45;&gt;LearnPageModule -->
<g id="edge1" class="edge">
<title>LearnPage&#45;&gt;LearnPageModule</title>
<path fill="none" stroke="black" d="M599,-122.11C599,-141.34 599,-169 599,-169 599,-169 430,-169 430,-169"/>
<polygon fill="black" stroke="black" points="430,-165.5 420,-169 430,-172.5 430,-165.5"/>
</g>
<!-- CommonModule -->
<g id="node3" class="node">
<title>CommonModule</title>
<polygon fill="#8dd3c7" stroke="black" points="536.67,-122 533.67,-126 512.67,-126 509.67,-122 425.33,-122 425.33,-86 536.67,-86 536.67,-122"/>
<text text-anchor="middle" x="481" y="-99.8" font-family="Times,serif" font-size="14.00">CommonModule</text>
</g>
<!-- CommonModule&#45;&gt;LearnPageModule -->
<g id="edge2" class="edge">
<title>CommonModule&#45;&gt;LearnPageModule</title>
<path fill="none" stroke="black" d="M425.1,-104C418.29,-104 413.68,-104 413.68,-104 413.68,-104 413.68,-140.89 413.68,-140.89"/>
<polygon fill="black" stroke="black" points="410.18,-140.89 413.68,-150.89 417.18,-140.89 410.18,-140.89"/>
</g>
<!-- FormsModule -->
<g id="node4" class="node">
<title>FormsModule</title>
<polygon fill="#8dd3c7" stroke="black" points="407.83,-122 404.83,-126 383.83,-126 380.83,-122 312.17,-122 312.17,-86 407.83,-86 407.83,-122"/>
<text text-anchor="middle" x="360" y="-99.8" font-family="Times,serif" font-size="14.00">FormsModule</text>
</g>
<!-- FormsModule&#45;&gt;LearnPageModule -->
<g id="edge3" class="edge">
<title>FormsModule&#45;&gt;LearnPageModule</title>
<path fill="none" stroke="black" d="M360,-122.11C360,-122.11 360,-140.99 360,-140.99"/>
<polygon fill="black" stroke="black" points="356.5,-140.99 360,-150.99 363.5,-140.99 356.5,-140.99"/>
</g>
<!-- IonicModule -->
<g id="node5" class="node">
<title>IonicModule</title>
<polygon fill="#8dd3c7" stroke="black" points="294.32,-122 291.32,-126 270.32,-126 267.32,-122 205.68,-122 205.68,-86 294.32,-86 294.32,-122"/>
<text text-anchor="middle" x="250" y="-99.8" font-family="Times,serif" font-size="14.00">IonicModule</text>
</g>
<!-- IonicModule&#45;&gt;LearnPageModule -->
<g id="edge4" class="edge">
<title>IonicModule&#45;&gt;LearnPageModule</title>
<path fill="none" stroke="black" d="M294.37,-104C301.35,-104 306.32,-104 306.32,-104 306.32,-104 306.32,-140.89 306.32,-140.89"/>
<polygon fill="black" stroke="black" points="302.82,-140.89 306.32,-150.89 309.82,-140.89 302.82,-140.89"/>
</g>
<!-- LearnPageRoutingModule -->
<g id="node6" class="node">
<title>LearnPageRoutingModule</title>
<polygon fill="#8dd3c7" stroke="black" points="188.02,-122 185.02,-126 164.02,-126 161.02,-122 23.98,-122 23.98,-86 188.02,-86 188.02,-122"/>
<text text-anchor="middle" x="106" y="-99.8" font-family="Times,serif" font-size="14.00">LearnPageRoutingModule</text>
</g>
<!-- LearnPageRoutingModule&#45;&gt;LearnPageModule -->
<g id="edge5" class="edge">
<title>LearnPageRoutingModule&#45;&gt;LearnPageModule</title>
<path fill="none" stroke="black" d="M106,-122.11C106,-141.34 106,-169 106,-169 106,-169 290.13,-169 290.13,-169"/>
<polygon fill="black" stroke="black" points="290.13,-172.5 300.13,-169 290.13,-165.5 290.13,-172.5"/>
</g>
</g>
</svg>
