<?xml version="1.0" encoding="UTF-8" standalone="no"?>
<!DOCTYPE svg PUBLIC "-//W3C//DTD SVG 1.1//EN"
 "http://www.w3.org/Graphics/SVG/1.1/DTD/svg11.dtd">
<!-- Generated by graphviz version 2.46.0 (20210119.1425)
 -->
<!-- Title: dependencies Pages: 1 -->
<svg width="677pt" height="211pt"
 viewBox="0.00 0.00 677.00 211.00" xmlns="http://www.w3.org/2000/svg" xmlns:xlink="http://www.w3.org/1999/xlink">
<g id="graph0" class="graph" transform="scale(1 1) rotate(0) translate(4 207)">
<title>dependencies</title>
<polygon fill="white" stroke="transparent" points="-4,4 -4,-207 673,-207 673,4 -4,4"/>
<text text-anchor="start" x="313.51" y="-42.4" font-family="sans-serif" font-weight="bold" font-size="14.00">Legend</text>
<polygon fill="#ffffb3" stroke="transparent" points="100.5,-10 100.5,-30 120.5,-30 120.5,-10 100.5,-10"/>
<text text-anchor="start" x="124.13" y="-15.4" font-family="sans-serif" font-size="14.00"> &#160;Declarations</text>
<polygon fill="#8dd3c7" stroke="transparent" points="213.5,-10 213.5,-30 233.5,-30 233.5,-10 213.5,-10"/>
<text text-anchor="start" x="237.23" y="-15.4" font-family="sans-serif" font-size="14.00"> &#160;Module</text>
<polygon fill="#80b1d3" stroke="transparent" points="299.5,-10 299.5,-30 319.5,-30 319.5,-10 299.5,-10"/>
<text text-anchor="start" x="323.28" y="-15.4" font-family="sans-serif" font-size="14.00"> &#160;Bootstrap</text>
<polygon fill="#fdb462" stroke="transparent" points="396.5,-10 396.5,-30 416.5,-30 416.5,-10 396.5,-10"/>
<text text-anchor="start" x="420.17" y="-15.4" font-family="sans-serif" font-size="14.00"> &#160;Providers</text>
<polygon fill="#fb8072" stroke="transparent" points="492.5,-10 492.5,-30 512.5,-30 512.5,-10 492.5,-10"/>
<text text-anchor="start" x="516.23" y="-15.4" font-family="sans-serif" font-size="14.00"> &#160;Exports</text>
<g id="clust1" class="cluster">
<title>cluster_FolderPageModule</title>
<polygon fill="none" stroke="black" stroke-dasharray="1,5" points="8,-70 8,-195 661,-195 661,-70 8,-70"/>
</g>
<g id="clust4" class="cluster">
<title>cluster_FolderPageModule_imports</title>
<polygon fill="none" stroke="black" points="120,-78 120,-130 653,-130 653,-78 120,-78"/>
</g>
<g id="clust2" class="cluster">
<title>cluster_FolderPageModule_declarations</title>
<polygon fill="none" stroke="black" points="16,-78 16,-130 112,-130 112,-78 16,-78"/>
</g>
<!-- FolderPage -->
<g id="node1" class="node">
<title>FolderPage</title>
<polygon fill="#ffffb3" stroke="black" points="103.76,-122 24.24,-122 24.24,-86 103.76,-86 103.76,-122"/>
<text text-anchor="middle" x="64" y="-99.8" font-family="Times,serif" font-size="14.00">FolderPage</text>
</g>
<!-- FolderPageModule -->
<g id="node2" class="node">
<title>FolderPageModule</title>
<polygon fill="#8dd3c7" stroke="black" points="419.81,-187 416.81,-191 395.81,-191 392.81,-187 296.19,-187 296.19,-151 419.81,-151 419.81,-187"/>
<text text-anchor="middle" x="358" y="-164.8" font-family="Times,serif" font-size="14.00">FolderPageModule</text>
</g>
<!-- FolderPage&#45;&gt;FolderPageModule -->
<g id="edge1" class="edge">
<title>FolderPage&#45;&gt;FolderPageModule</title>
<path fill="none" stroke="black" d="M64,-122.11C64,-141.34 64,-169 64,-169 64,-169 286.01,-169 286.01,-169"/>
<polygon fill="black" stroke="black" points="286.01,-172.5 296.01,-169 286.01,-165.5 286.01,-172.5"/>
</g>
<!-- CommonModule -->
<g id="node3" class="node">
<title>CommonModule</title>
<polygon fill="#8dd3c7" stroke="black" points="644.67,-122 641.67,-126 620.67,-126 617.67,-122 533.33,-122 533.33,-86 644.67,-86 644.67,-122"/>
<text text-anchor="middle" x="589" y="-99.8" font-family="Times,serif" font-size="14.00">CommonModule</text>
</g>
<!-- CommonModule&#45;&gt;FolderPageModule -->
<g id="edge2" class="edge">
<title>CommonModule&#45;&gt;FolderPageModule</title>
<path fill="none" stroke="black" d="M589,-122.11C589,-141.34 589,-169 589,-169 589,-169 429.9,-169 429.9,-169"/>
<polygon fill="black" stroke="black" points="429.9,-165.5 419.9,-169 429.9,-172.5 429.9,-165.5"/>
</g>
<!-- FormsModule -->
<g id="node4" class="node">
<title>FormsModule</title>
<polygon fill="#8dd3c7" stroke="black" points="515.83,-122 512.83,-126 491.83,-126 488.83,-122 420.17,-122 420.17,-86 515.83,-86 515.83,-122"/>
<text text-anchor="middle" x="468" y="-99.8" font-family="Times,serif" font-size="14.00">FormsModule</text>
</g>
<!-- FormsModule&#45;&gt;FolderPageModule -->
<g id="edge3" class="edge">
<title>FormsModule&#45;&gt;FolderPageModule</title>
<path fill="none" stroke="black" d="M420.33,-104C414.7,-104 410.91,-104 410.91,-104 410.91,-104 410.91,-140.89 410.91,-140.89"/>
<polygon fill="black" stroke="black" points="407.41,-140.89 410.91,-150.89 414.41,-140.89 407.41,-140.89"/>
</g>
<!-- IonicModule -->
<g id="node5" class="node">
<title>IonicModule</title>
<polygon fill="#8dd3c7" stroke="black" points="402.32,-122 399.32,-126 378.32,-126 375.32,-122 313.68,-122 313.68,-86 402.32,-86 402.32,-122"/>
<text text-anchor="middle" x="358" y="-99.8" font-family="Times,serif" font-size="14.00">IonicModule</text>
</g>
<!-- IonicModule&#45;&gt;FolderPageModule -->
<g id="edge4" class="edge">
<title>IonicModule&#45;&gt;FolderPageModule</title>
<path fill="none" stroke="black" d="M358,-122.11C358,-122.11 358,-140.99 358,-140.99"/>
<polygon fill="black" stroke="black" points="354.5,-140.99 358,-150.99 361.5,-140.99 354.5,-140.99"/>
</g>
<!-- FolderPageRoutingModule -->
<g id="node6" class="node">
<title>FolderPageRoutingModule</title>
<polygon fill="#8dd3c7" stroke="black" points="296.43,-122 293.43,-126 272.43,-126 269.43,-122 127.57,-122 127.57,-86 296.43,-86 296.43,-122"/>
<text text-anchor="middle" x="212" y="-99.8" font-family="Times,serif" font-size="14.00">FolderPageRoutingModule</text>
</g>
<!-- FolderPageRoutingModule&#45;&gt;FolderPageModule -->
<g id="edge5" class="edge">
<title>FolderPageRoutingModule&#45;&gt;FolderPageModule</title>
<path fill="none" stroke="black" d="M296.5,-104C301.82,-104 305.09,-104 305.09,-104 305.09,-104 305.09,-140.89 305.09,-140.89"/>
<polygon fill="black" stroke="black" points="301.59,-140.89 305.09,-150.89 308.59,-140.89 301.59,-140.89"/>
</g>
</g>
</svg>
