<?xml version="1.0" encoding="UTF-8" standalone="no"?>
<!DOCTYPE svg PUBLIC "-//W3C//DTD SVG 1.1//EN"
 "http://www.w3.org/Graphics/SVG/1.1/DTD/svg11.dtd">
<!-- Generated by graphviz version 2.46.0 (20210119.1425)
 -->
<!-- Title: dependencies Pages: 1 -->
<svg width="949pt" height="211pt"
 viewBox="0.00 0.00 949.00 211.00" xmlns="http://www.w3.org/2000/svg" xmlns:xlink="http://www.w3.org/1999/xlink">
<g id="graph0" class="graph" transform="scale(1 1) rotate(0) translate(4 207)">
<title>dependencies</title>
<polygon fill="white" stroke="transparent" points="-4,4 -4,-207 945,-207 945,4 -4,4"/>
<text text-anchor="start" x="449.51" y="-42.4" font-family="sans-serif" font-weight="bold" font-size="14.00">Legend</text>
<polygon fill="#ffffb3" stroke="transparent" points="236.5,-10 236.5,-30 256.5,-30 256.5,-10 236.5,-10"/>
<text text-anchor="start" x="260.13" y="-15.4" font-family="sans-serif" font-size="14.00"> &#160;Declarations</text>
<polygon fill="#8dd3c7" stroke="transparent" points="349.5,-10 349.5,-30 369.5,-30 369.5,-10 349.5,-10"/>
<text text-anchor="start" x="373.23" y="-15.4" font-family="sans-serif" font-size="14.00"> &#160;Module</text>
<polygon fill="#80b1d3" stroke="transparent" points="435.5,-10 435.5,-30 455.5,-30 455.5,-10 435.5,-10"/>
<text text-anchor="start" x="459.28" y="-15.4" font-family="sans-serif" font-size="14.00"> &#160;Bootstrap</text>
<polygon fill="#fdb462" stroke="transparent" points="532.5,-10 532.5,-30 552.5,-30 552.5,-10 532.5,-10"/>
<text text-anchor="start" x="556.17" y="-15.4" font-family="sans-serif" font-size="14.00"> &#160;Providers</text>
<polygon fill="#fb8072" stroke="transparent" points="628.5,-10 628.5,-30 648.5,-30 648.5,-10 628.5,-10"/>
<text text-anchor="start" x="652.23" y="-15.4" font-family="sans-serif" font-size="14.00"> &#160;Exports</text>
<g id="clust1" class="cluster">
<title>cluster_QuizPageModule</title>
<polygon fill="none" stroke="black" stroke-dasharray="1,5" points="8,-70 8,-195 933,-195 933,-70 8,-70"/>
</g>
<g id="clust2" class="cluster">
<title>cluster_QuizPageModule_declarations</title>
<polygon fill="none" stroke="black" points="683,-78 683,-130 925,-130 925,-78 683,-78"/>
</g>
<g id="clust5" class="cluster">
<title>cluster_QuizPageModule_imports</title>
<polygon fill="none" stroke="black" points="16,-78 16,-130 675,-130 675,-78 16,-78"/>
</g>
<!-- QuizPage -->
<g id="node1" class="node">
<title>QuizPage</title>
<polygon fill="#ffffb3" stroke="black" points="917.42,-122 846.58,-122 846.58,-86 917.42,-86 917.42,-122"/>
<text text-anchor="middle" x="882" y="-99.8" font-family="Times,serif" font-size="14.00">QuizPage</text>
</g>
<!-- QuizPageModule -->
<g id="node3" class="node">
<title>QuizPageModule</title>
<polygon fill="#8dd3c7" stroke="black" points="546.97,-187 543.97,-191 522.97,-191 519.97,-187 433.03,-187 433.03,-151 546.97,-151 546.97,-187"/>
<text text-anchor="middle" x="490" y="-164.8" font-family="Times,serif" font-size="14.00">QuizPageModule</text>
</g>
<!-- QuizPage&#45;&gt;QuizPageModule -->
<g id="edge1" class="edge">
<title>QuizPage&#45;&gt;QuizPageModule</title>
<path fill="none" stroke="black" d="M882,-122.28C882,-143.32 882,-175 882,-175 882,-175 557,-175 557,-175"/>
<polygon fill="black" stroke="black" points="557,-171.5 547,-175 557,-178.5 557,-171.5"/>
</g>
<!-- QuizZoneComponent -->
<g id="node2" class="node">
<title>QuizZoneComponent</title>
<polygon fill="#ffffb3" stroke="black" points="828.81,-122 691.19,-122 691.19,-86 828.81,-86 828.81,-122"/>
<text text-anchor="middle" x="760" y="-99.8" font-family="Times,serif" font-size="14.00">QuizZoneComponent</text>
</g>
<!-- QuizZoneComponent&#45;&gt;QuizPageModule -->
<g id="edge2" class="edge">
<title>QuizZoneComponent&#45;&gt;QuizPageModule</title>
<path fill="none" stroke="black" d="M760,-122.02C760,-139.37 760,-163 760,-163 760,-163 557.26,-163 557.26,-163"/>
<polygon fill="black" stroke="black" points="557.26,-159.5 547.26,-163 557.26,-166.5 557.26,-159.5"/>
</g>
<!-- CommonModule -->
<g id="node4" class="node">
<title>CommonModule</title>
<polygon fill="#8dd3c7" stroke="black" points="666.67,-122 663.67,-126 642.67,-126 639.67,-122 555.33,-122 555.33,-86 666.67,-86 666.67,-122"/>
<text text-anchor="middle" x="611" y="-99.8" font-family="Times,serif" font-size="14.00">CommonModule</text>
</g>
<!-- CommonModule&#45;&gt;QuizPageModule -->
<g id="edge3" class="edge">
<title>CommonModule&#45;&gt;QuizPageModule</title>
<path fill="none" stroke="black" d="M555.24,-104C547.61,-104 542.33,-104 542.33,-104 542.33,-104 542.33,-140.89 542.33,-140.89"/>
<polygon fill="black" stroke="black" points="538.83,-140.89 542.33,-150.89 545.83,-140.89 538.83,-140.89"/>
</g>
<!-- FormsModule -->
<g id="node5" class="node">
<title>FormsModule</title>
<polygon fill="#8dd3c7" stroke="black" points="537.83,-122 534.83,-126 513.83,-126 510.83,-122 442.17,-122 442.17,-86 537.83,-86 537.83,-122"/>
<text text-anchor="middle" x="490" y="-99.8" font-family="Times,serif" font-size="14.00">FormsModule</text>
</g>
<!-- FormsModule&#45;&gt;QuizPageModule -->
<g id="edge4" class="edge">
<title>FormsModule&#45;&gt;QuizPageModule</title>
<path fill="none" stroke="black" d="M490,-122.11C490,-122.11 490,-140.99 490,-140.99"/>
<polygon fill="black" stroke="black" points="486.5,-140.99 490,-150.99 493.5,-140.99 486.5,-140.99"/>
</g>
<!-- IonicModule -->
<g id="node6" class="node">
<title>IonicModule</title>
<polygon fill="#8dd3c7" stroke="black" points="424.32,-122 421.32,-126 400.32,-126 397.32,-122 335.68,-122 335.68,-86 424.32,-86 424.32,-122"/>
<text text-anchor="middle" x="380" y="-99.8" font-family="Times,serif" font-size="14.00">IonicModule</text>
</g>
<!-- IonicModule&#45;&gt;QuizPageModule -->
<g id="edge5" class="edge">
<title>IonicModule&#45;&gt;QuizPageModule</title>
<path fill="none" stroke="black" d="M424.3,-104C432.04,-104 437.67,-104 437.67,-104 437.67,-104 437.67,-140.89 437.67,-140.89"/>
<polygon fill="black" stroke="black" points="434.17,-140.89 437.67,-150.89 441.17,-140.89 434.17,-140.89"/>
</g>
<!-- QuizPageRoutingModule -->
<g id="node7" class="node">
<title>QuizPageRoutingModule</title>
<polygon fill="#8dd3c7" stroke="black" points="317.59,-122 314.59,-126 293.59,-126 290.59,-122 158.41,-122 158.41,-86 317.59,-86 317.59,-122"/>
<text text-anchor="middle" x="238" y="-99.8" font-family="Times,serif" font-size="14.00">QuizPageRoutingModule</text>
</g>
<!-- QuizPageRoutingModule&#45;&gt;QuizPageModule -->
<g id="edge6" class="edge">
<title>QuizPageRoutingModule&#45;&gt;QuizPageModule</title>
<path fill="none" stroke="black" d="M238,-122.02C238,-139.37 238,-163 238,-163 238,-163 422.82,-163 422.82,-163"/>
<polygon fill="black" stroke="black" points="422.82,-166.5 432.82,-163 422.82,-159.5 422.82,-166.5"/>
</g>
<!-- DragDropModule -->
<g id="node8" class="node">
<title>DragDropModule</title>
<polygon fill="#8dd3c7" stroke="black" points="140.3,-122 137.3,-126 116.3,-126 113.3,-122 23.7,-122 23.7,-86 140.3,-86 140.3,-122"/>
<text text-anchor="middle" x="82" y="-99.8" font-family="Times,serif" font-size="14.00">DragDropModule</text>
</g>
<!-- DragDropModule&#45;&gt;QuizPageModule -->
<g id="edge7" class="edge">
<title>DragDropModule&#45;&gt;QuizPageModule</title>
<path fill="none" stroke="black" d="M82,-122.28C82,-143.32 82,-175 82,-175 82,-175 422.84,-175 422.84,-175"/>
<polygon fill="black" stroke="black" points="422.84,-178.5 432.84,-175 422.84,-171.5 422.84,-178.5"/>
</g>
</g>
</svg>
